<svg width="16" height="16" viewBox="0 0 16 16" fill="none" xmlns="http://www.w3.org/2000/svg">
<g clip-path="url(#clip0_4_14675)">
<path fill-rule="evenodd" clip-rule="evenodd" d="M8 12C10.2091 12 12 10.2091 12 8C12 5.79086 10.2091 4 8 4C5.79086 4 4 5.79086 4 8C4 10.2091 5.79086 12 8 12ZM8 10.6667C9.47273 10.6667 10.6667 9.47273 10.6667 8C10.6667 6.52724 9.47273 5.33333 8 5.33333C6.52724 5.33333 5.33333 6.52724 5.33333 8C5.33333 9.47273 6.52724 10.6667 8 10.6667Z" fill="white"/>
<path d="M12 3.33334C11.6318 3.33334 11.3333 3.63182 11.3333 4.00001C11.3333 4.3682 11.6318 4.66668 12 4.66668C12.3682 4.66668 12.6667 4.3682 12.6667 4.00001C12.6667 3.63182 12.3682 3.33334 12 3.33334Z" fill="white"/>
<path fill-rule="evenodd" clip-rule="evenodd" d="M1.10264 2.8507C0.666667 3.70634 0.666667 4.82645 0.666667 7.06666V8.93332C0.666667 11.1735 0.666667 12.2937 1.10264 13.1493C1.48613 13.9019 2.09805 14.5139 2.85071 14.8973C3.70635 15.3333 4.82646 15.3333 7.06667 15.3333H8.93333C11.1735 15.3333 12.2937 15.3333 13.1493 14.8973C13.9019 14.5139 14.5139 13.9019 14.8973 13.1493C15.3333 12.2937 15.3333 11.1735 15.3333 8.93332V7.06666C15.3333 4.82645 15.3333 3.70634 14.8973 2.8507C14.5139 2.09804 13.9019 1.48612 13.1493 1.10263C12.2937 0.666656 11.1735 0.666656 8.93333 0.666656H7.06667C4.82646 0.666656 3.70635 0.666656 2.85071 1.10263C2.09805 1.48612 1.48613 2.09804 1.10264 2.8507ZM8.93333 1.99999H7.06667C5.92456 1.99999 5.14817 2.00103 4.54805 2.05006C3.96349 2.09782 3.66456 2.18438 3.45603 2.29064C2.95426 2.5463 2.54631 2.95425 2.29065 3.45602C2.18439 3.66455 2.09783 3.96348 2.05007 4.54804C2.00104 5.14816 2 5.92455 2 7.06666V8.93332C2 10.0755 2.00104 10.8518 2.05007 11.4519C2.09783 12.0365 2.18439 12.3355 2.29065 12.544C2.54631 13.0457 2.95426 13.4537 3.45603 13.7093C3.66456 13.8156 3.96349 13.9022 4.54805 13.9499C5.14817 13.9989 5.92456 14 7.06667 14H8.93333C10.0755 14 10.8518 13.9989 11.4519 13.9499C12.0365 13.9022 12.3355 13.8156 12.544 13.7093C13.0457 13.4537 13.4537 13.0457 13.7093 12.544C13.8156 12.3355 13.9022 12.0365 13.9499 11.4519C13.9989 10.8518 14 10.0755 14 8.93332V7.06666C14 5.92455 13.9989 5.14816 13.9499 4.54804C13.9022 3.96348 13.8156 3.66455 13.7093 3.45602C13.4537 2.95425 13.0457 2.5463 12.544 2.29064C12.3355 2.18438 12.0365 2.09782 11.4519 2.05006C10.8518 2.00103 10.0755 1.99999 8.93333 1.99999Z" fill="white"/>
</g>
<defs>
<clipPath id="clip0_4_14675">
<rect width="16" height="16" fill="white"/>
</clipPath>
</defs>
</svg>
