<svg width="16" height="16" viewBox="0 0 16 16" fill="none" xmlns="http://www.w3.org/2000/svg">
<g clip-path="url(#clip0_4_14669)">
<path d="M15.5905 15.663H12.34C12.11 15.663 11.9245 15.477 11.9245 15.2475V10.013C11.9245 8.2175 10.9985 8.2175 10.693 8.2175C9.871 8.2175 9.5215 8.8665 9.408 9.1465C9.3545 9.2725 9.3295 9.4865 9.3295 9.786V15.2505C9.3295 15.4805 9.1435 15.666 8.914 15.666H5.6605C5.5505 15.666 5.443 15.622 5.3645 15.543C5.286 15.464 5.2415 15.357 5.245 15.247C5.245 15.159 5.289 6.381 5.245 5.483C5.2385 5.3695 5.2795 5.2595 5.3585 5.1775C5.4375 5.0955 5.5445 5.0485 5.661 5.0485H8.9145C9.1445 5.0485 9.33 5.2345 9.33 5.464V5.7095C9.878 5.2215 10.6685 4.818 11.8465 4.818C14.451 4.818 16.007 6.6195 16.007 9.637V15.2465C16.007 15.4765 15.821 15.662 15.5915 15.662L15.5905 15.663ZM12.756 14.8315H15.178V9.638C15.178 7.1025 13.9655 5.6505 11.849 5.6505C10.435 5.6505 9.748 6.356 9.3165 7.0015C9.266 7.1715 9.1055 7.2975 8.9165 7.2975H8.8945C8.7435 7.2975 8.6045 7.2155 8.5325 7.0835C8.476 6.9795 8.463 6.86 8.501 6.7495V5.877H6.085C6.107 7.6125 6.085 13.228 6.0785 14.828H8.4975V9.7825C8.4975 9.3635 8.5415 9.0615 8.636 8.8315C9.0015 7.9275 9.77 7.3825 10.6895 7.3825C11.9995 7.3825 12.7525 8.34 12.7525 10.0095V14.8315H12.756ZM3.8615 15.663H0.608C0.378 15.663 0.1925 15.477 0.1925 15.2475V5.465C0.1925 5.235 0.3785 5.0495 0.608 5.0495H3.8615C4.0915 5.0495 4.277 5.2355 4.277 5.465V15.2475C4.277 15.4775 4.091 15.663 3.8615 15.663ZM1.0235 14.8315H3.4455V5.8805H1.0235V14.8315ZM2.236 4.545H2.214C0.932 4.545 0 3.657 0 2.435C0 1.216 0.948 0.328003 2.2585 0.328003C3.5465 0.328003 4.4665 1.191 4.4915 2.4255C4.4915 3.657 3.543 4.545 2.236 4.545ZM2.258 1.162C1.4045 1.162 0.831 1.6755 0.831 2.4375C0.831 3.187 1.398 3.713 2.2135 3.713H2.2355C3.086 3.713 3.659 3.1995 3.659 2.4375C3.643 1.666 3.0925 1.162 2.258 1.162Z" fill="white"/>
</g>
<defs>
<clipPath id="clip0_4_14669">
<rect width="16" height="16" fill="white"/>
</clipPath>
</defs>
</svg>
