<svg width="16" height="16" viewBox="0 0 16 16" fill="none" xmlns="http://www.w3.org/2000/svg">
<g clip-path="url(#clip0_4_14700)">
<path d="M13.288 2.68149C11.943 1.33649 10.085 0.504486 8.0325 0.504486C3.928 0.504486 0.599998 3.83199 0.599998 7.93699C0.599998 9.30299 0.968498 10.5825 1.611 11.6825L1.592 11.6475L0.537498 15.4985L4.477 14.465C5.5025 15.0345 6.726 15.3695 8.028 15.3695H8.031C12.1355 15.368 15.462 12.04 15.462 7.93549C15.462 5.88399 14.6315 4.02649 13.288 2.68149ZM8.031 14.114H8.0285C6.869 14.114 5.7835 13.794 4.857 13.2375L4.885 13.253L4.6595 13.1195L2.322 13.733L2.9455 11.4535L2.7985 11.22C2.206 10.289 1.854 9.15449 1.854 7.93749C1.854 4.52649 4.6195 1.76099 8.0305 1.76099C11.4415 1.76099 14.207 4.52649 14.207 7.93749C14.207 11.3485 11.4425 14.114 8.031 14.114ZM11.419 9.48848C11.2335 9.39548 10.3205 8.94698 10.1505 8.88448C9.98 8.82248 9.856 8.79198 9.732 8.97798C9.609 9.16348 9.253 9.58148 9.1445 9.70548C9.0365 9.82998 8.9275 9.84498 8.742 9.75248C8.167 9.51948 7.673 9.20898 7.2435 8.82648L7.2485 8.83099C6.849 8.46099 6.5065 8.03749 6.23 7.57049L6.216 7.54449C6.108 7.35899 6.2045 7.25849 6.297 7.16599C6.3805 7.08299 6.483 6.94899 6.5755 6.84099C6.6485 6.75149 6.711 6.64899 6.7585 6.53899L6.7615 6.53049C6.783 6.48699 6.7955 6.43649 6.7955 6.38249C6.7955 6.31699 6.777 6.25599 6.745 6.20399L6.746 6.20549C6.699 6.11249 6.328 5.19849 6.1735 4.82649C6.0225 4.46449 5.869 4.51399 5.7555 4.50799C5.6475 4.50299 5.5235 4.50199 5.3995 4.50199C5.202 4.50699 5.0265 4.59599 4.9055 4.73349L4.905 4.73449C4.504 5.11499 4.255 5.65149 4.255 6.24599C4.255 6.25899 4.255 6.27249 4.2555 6.28549V6.28349C4.321 7.01699 4.596 7.67549 5.019 8.21199L5.013 8.20449C5.815 9.39399 6.884 10.3455 8.1385 10.9865L8.1855 11.008C8.4595 11.132 8.8105 11.2645 9.1695 11.378L9.244 11.3985C9.465 11.4685 9.7195 11.509 9.9835 11.509C10.135 11.509 10.284 11.4955 10.428 11.47L10.4125 11.472C10.947 11.3605 11.3905 11.038 11.661 10.5975L11.6655 10.589C11.748 10.406 11.796 10.1925 11.796 9.96799C11.796 9.87549 11.788 9.78498 11.7725 9.69698L11.774 9.70648C11.728 9.62898 11.604 9.58298 11.418 9.48948L11.419 9.48848Z" fill="white"/>
</g>
<defs>
<clipPath id="clip0_4_14700">
<rect width="16" height="16" fill="white"/>
</clipPath>
</defs>
</svg>
